<svg width="130" height="60" viewBox="0 0 130 60" fill="none" xmlns="http://www.w3.org/2000/svg">
  <!-- outer body -->
  <rect x="8" y="8" width="114" height="44" rx="8" fill="#F3F4F6" stroke="#333333" stroke-width="2"/>
  <!-- inner area -->
  <rect x="16" y="16" width="98" height="28" rx="5" fill="white" stroke="#D1D5DB" stroke-width="1.5"/>
  <!-- vertical dividers -->
  <line x1="40.5" y1="16" x2="40.5" y2="44" stroke="#9CA3AF" stroke-width="1.5"/>
  <line x1="65" y1="16" x2="65" y2="44" stroke="#9CA3AF" stroke-width="1.5"/>
  <line x1="89.5" y1="16" x2="89.5" y2="44" stroke="#9CA3AF" stroke-width="1.5"/>
  <!-- books -->
  <rect x="22" y="21" width="5" height="14" rx="1" fill="#E5E7EB" stroke="#9CA3AF" stroke-width="0.8"/>
  <rect x="29" y="19" width="4" height="16" rx="1" fill="#E5E7EB" stroke="#9CA3AF" stroke-width="0.8"/>
  <rect x="47" y="20" width="5" height="15" rx="1" fill="#E5E7EB" stroke="#9CA3AF" stroke-width="0.8"/>
  <rect x="54" y="22" width="4" height="13" rx="1" fill="#E5E7EB" stroke="#9CA3AF" stroke-width="0.8"/>
  <rect x="71" y="20" width="5" height="15" rx="1" fill="#E5E7EB" stroke="#9CA3AF" stroke-width="0.8"/>
  <rect x="78" y="21" width="4" height="14" rx="1" fill="#E5E7EB" stroke="#9CA3AF" stroke-width="0.8"/>
  <rect x="96" y="19" width="5" height="16" rx="1" fill="#E5E7EB" stroke="#9CA3AF" stroke-width="0.8"/>
  <rect x="103" y="21" width="4" height="14" rx="1" fill="#E5E7EB" stroke="#9CA3AF" stroke-width="0.8"/>
</svg>
